<?xml version="1.0" encoding="UTF-8" standalone="no"?>
<!-- Created with Inkscape (http://www.inkscape.org/) -->

<svg
   xmlns:dc="http://purl.org/dc/elements/1.1/"
   xmlns:cc="http://creativecommons.org/ns#"
   xmlns:rdf="http://www.w3.org/1999/02/22-rdf-syntax-ns#"
   xmlns:svg="http://www.w3.org/2000/svg"
   xmlns="http://www.w3.org/2000/svg"
   xmlns:sodipodi="http://sodipodi.sourceforge.net/DTD/sodipodi-0.dtd"
   xmlns:inkscape="http://www.inkscape.org/namespaces/inkscape"
   width="120"
   height="120"
   viewBox="0 0 120 120"
   id="svg2"
   version="1.1"
   inkscape:version="0.92.2 (30a58d1, 2017-08-07)"
   sodipodi:docname="twitter.svg">
  <defs
     id="defs4" />
  <sodipodi:namedview
     id="base"
     pagecolor="#ffffff"
     bordercolor="#666666"
     borderopacity="1.0"
     inkscape:pageopacity="0.0"
     inkscape:pageshadow="2"
     inkscape:zoom="3.959798"
     inkscape:cx="10.611111"
     inkscape:cy="59.808737"
     inkscape:document-units="px"
     inkscape:current-layer="layer1"
     showgrid="true"
     units="px"
     showguides="false"
     inkscape:window-width="1366"
     inkscape:window-height="704"
     inkscape:window-x="0"
     inkscape:window-y="27"
     inkscape:window-maximized="1">
    <inkscape:grid
       type="xygrid"
       id="grid3344"
       color="#ff00ff"
       opacity="0.1254902"
       empcolor="#ff00ff"
       empopacity="0.25098039" />
  </sodipodi:namedview>
  <metadata
     id="metadata7">
    <rdf:RDF>
      <cc:Work
         rdf:about="">
        <dc:format>image/svg+xml</dc:format>
        <dc:type
           rdf:resource="http://purl.org/dc/dcmitype/StillImage" />
        <dc:title />
      </cc:Work>
    </rdf:RDF>
  </metadata>
  <g
     inkscape:label="Layer 1"
     inkscape:groupmode="layer"
     id="layer1"
     transform="translate(0,-932.36216)">
    <g
       id="g823"
       style="stroke:#800080;stroke-opacity:0.98689955">
      <g
         style="stroke:#800080;stroke-opacity:0.98689955"
         id="g3338">
        <path
           style="fill:none;fill-opacity:1;fill-rule:evenodd;stroke:#800080;stroke-width:3.99999952;stroke-linecap:round;stroke-linejoin:round;stroke-miterlimit:4;stroke-dasharray:none;stroke-dashoffset:0;stroke-opacity:0.98689955"
           id="path3346"
           sodipodi:type="arc"
           sodipodi:cx="60.126274"
           sodipodi:cy="992.13501"
           sodipodi:rx="48.105965"
           sodipodi:ry="48.005074"
           sodipodi:start="0"
           sodipodi:end="6.2789267"
           sodipodi:open="true"
           d="M 108.23224,992.13501 A 48.105965,48.005074 0 0 1 60.17749,1040.1401 48.105965,48.005074 0 0 1 12.020419,992.23723 48.105965,48.005074 0 0 1 59.972626,944.13018 48.105965,48.005074 0 0 1 108.2318,991.93058" />
        <path
           style="fill:none;fill-rule:evenodd;stroke:#800080;stroke-width:3;stroke-linecap:butt;stroke-linejoin:miter;stroke-miterlimit:4;stroke-dasharray:none;stroke-opacity:0.98689955"
           d="m 59.95481,983.036 c -3.222052,-15.92031 13.609261,-21.12234 20.490657,-12.23497 4.698796,-0.69696 6.21551,-2.10174 8.260443,-3.69375 -1.05261,2.88189 -2.860712,5.36437 -5.134128,7.60079 2.916762,0.063 5.116837,-0.95683 7.187778,-2.17166 -1.574668,2.79073 -4.107303,5.42915 -6.665196,7.24211 0.861913,43.46018 -44.571681,47.18618 -54.944297,34.01958 6.192224,1.7822 13.592306,0.011 18.482847,-5.4293 -7.334178,-1.7434 -10.639928,-6.4098 -11.138051,-8.80542 -0.05256,-0.2527 -0.07384,-0.48017 -0.06533,-0.67617 2.340439,0.25181 3.647056,-0.0434 5.042438,-0.29087 -8.934999,-4.25372 -9.13405,-10.28773 -9.695221,-13.47556 1.862643,1.23391 3.725282,1.66768 5.587923,1.53142 -7.764426,-7.87457 -4.831933,-15.91134 -3.750745,-17.97923 7.39717,11.13667 20.529011,15.19944 26.340887,14.36303 z"
           id="path4178"
           inkscape:connector-curvature="0"
           sodipodi:nodetypes="ccccccccscccccc" />
        <path
           style="fill:none;fill-rule:evenodd;stroke:#800080;stroke-width:3;stroke-linecap:butt;stroke-linejoin:miter;stroke-miterlimit:4;stroke-dasharray:none;stroke-opacity:0.98689955"
           d="m 63.989848,982.8041 c -3.89743,-11.1138 8.693678,-15.3315 11.641498,-11.26269"
           id="path4206"
           inkscape:connector-curvature="0"
           sodipodi:nodetypes="cc" />
        <path
           style="fill:none;fill-rule:evenodd;stroke:#800080;stroke-width:3;stroke-linecap:butt;stroke-linejoin:miter;stroke-miterlimit:4;stroke-dasharray:none;stroke-opacity:0.98689955"
           d="m 49.494924,1017.1097 c 14.033849,-1.7597 25.034227,-8.4628 30,-25.00008"
           id="path4208"
           inkscape:connector-curvature="0"
           sodipodi:nodetypes="cc" />
      </g>
    </g>
  </g>
</svg>
